PathFileType	4	(X/Y/Z)	Patient4_TMGait_0pt8_01_right_31.trc.trc
DataRate	CameraRate	NumFrames	NumMarkers	Units	OrigDataRate	OrigDataStartFrame	OrigNumFrames
86.956521739130	86.956521739130	5	33	mm	86.956521739130	89	       141
Frame#	Time	Sacral			L.Shoulder			Chest			R.Shoulder			Neck			R.ASIS			L.ASIS			R.Thigh.Superior			R.Thigh.Lateral			R.Thigh.Inferior			R.Patella			L.Thigh.Superior			L.Thigh.Lateral			L.Thigh.Inferior			L.Patella			L.Shank.Superior			L.Shank.Lateral			L.Shank.Inferior			R.Shank.Superior			R.Shank.Lateral			R.Shank.Inferior			R.Heel			R.Midfoot.Superior			R.Midfoot.Lateral			R.Toe			L.Heel			L.Midfoot.Lateral			L.Midfoot.Superior			L.Toe			L.Elbow			L.Wrist			R.Elbow			R.Wrist			
		X1	Y1	Z1	X2	Y2	Z2	X3	Y3	Z3	X4	Y4	Z4	X5	Y5	Z5	X6	Y6	Z6	X7	Y7	Z7	X8	Y8	Z8	X9	Y9	Z9	X10	Y10	Z10	X11	Y11	Z11	X12	Y12	Z12	X13	Y13	Z13	X14	Y14	Z14	X15	Y15	Z15	X16	Y16	Z16	X17	Y17	Z17	X18	Y18	Z18	X19	Y19	Z19	X20	Y20	Z20	X21	Y21	Z21	X22	Y22	Z22	X23	Y23	Z23	X24	Y24	Z24	X25	Y25	Z25	X26	Y26	Z26	X27	Y27	Z27	X28	Y28	Z28	X29	Y29	Z29	X30	Y30	Z30	X31	Y31	Z31	X32	Y32	Z32	X33	Y33	Z33	

89	35.662000000000	857.504788958182	1014.449819090311	461.623549225375	1032.295655720685	1434.137106481080	275.137107274760	1142.717993790488	1366.252862644278	432.046144302318	1067.722297202652	1443.675664783389	608.699168213884	1016.888130969735	1495.112793451556	430.932333268452	1080.817260305026	940.742378731937	574.445221753413	1067.615524395661	959.012000656974	302.849211327840	1098.930985952443	729.451454958668	559.904229227138	1005.141126849705	629.424688324073	623.414386639536	1080.941835344823	561.602288860486	552.848728695894	1060.273882717209	455.424285586743	572.506061144057	1130.748054615728	761.851776998319	334.204727391876	1054.253395743451	636.925450722218	273.816877738426	1149.912774423602	568.151221233752	334.910311977773	1159.264026568672	497.362954413941	342.788753816513	1132.448826142860	423.085937114733	335.856419612897	1044.551285680659	306.173562496894	289.689820219872	1102.933249859599	196.179047925731	355.847225403902	980.205979340462	393.054164676189	577.028373502578	857.682937260612	357.444063578488	636.568733048885	840.874306879716	248.725032995519	585.660201623346	637.444384507551	188.830745820222	556.518132179327	804.800576539886	127.879113710226	595.268260536051	695.082028248572	124.733232285692	625.638598883647	867.463365259774	29.208773612956	611.857866684013	981.392901256779	38.753291582347	402.949077132778	1050.005223848709	36.773749749381	317.619631072301	1134.705624460980	97.407797380019	340.247202137639	1261.091170807276	43.822779986012	302.389231657476	915.630863306727	1098.036497316250	181.306546684981	895.115301240733	838.914674275409	203.364452710033	1133.802458695456	1107.283196531380	732.213363917975	1371.669419288494	1148.964823440776	671.924160341884	
90	35.673500000000	856.090652374273	1014.555019514327	458.924255535044	1032.953679550257	1434.931305194478	273.363584923697	1142.166216919509	1366.686332614560	430.936125700765	1065.902963306945	1443.743336333972	607.259758099902	1016.533040317557	1495.669323556859	429.171470663308	1079.677406788138	941.374116954700	572.018558284648	1066.772162249668	959.571178417474	300.462641580448	1103.962940967466	731.833585524813	557.596595607262	1013.936938285086	629.555226481065	621.849406602106	1091.621075638932	563.312781743797	551.091223628856	1072.649182956830	455.723991567657	571.424812100856	1128.539972226242	760.866232454250	331.560844505542	1050.448211727234	636.816086805902	272.102533250600	1145.157721864908	567.229086402284	333.431284442811	1153.658693906638	496.482334600524	341.533502189333	1126.281761677828	422.298849474234	334.735030079998	1037.428515086109	305.982739348990	288.916184945283	1094.915595219526	195.718912974656	355.427678623029	990.719126454418	393.962250487775	575.955134617404	866.644313012240	362.885119899620	635.217767809355	846.623841367219	254.390009718387	585.407325047571	642.565204617091	204.769645544735	555.828904104535	805.540431424363	133.209736431618	595.571137503771	695.659929439087	136.992724085890	625.214805020736	860.977275175656	28.006314973291	612.504778268626	972.118601989160	38.794571473160	402.884965633820	1040.712178104946	36.693392517358	317.581660043828	1125.588878553353	97.205707205850	340.221091671129	1251.918244802468	43.171047554621	302.340246792585	922.876993178441	1096.768520428603	176.216984712044	914.822548057307	836.677462340190	197.601801956015	1120.994349495916	1104.397827998837	730.296490950952	1362.756835861943	1129.115013351304	674.652908406316	
91	35.685000000000	854.495219175604	1014.486357243139	456.348624215768	1033.417535367014	1435.465219157264	271.729420580645	1141.438634178437	1366.921124611737	429.963029680317	1063.916512575312	1443.593548508090	605.977997286209	1016.097274394103	1496.051075507936	427.527592689877	1078.344933799549	941.831313364200	569.758057820150	1065.770906833782	959.956725343420	298.201897181969	1108.783827572098	734.410902385239	555.210290095283	1022.752081511025	630.001418613870	620.352559258426	1102.136177479611	565.491275183153	549.198654816810	1085.167279604997	456.599573821554	570.144561471631	1126.255806417232	759.927432493174	329.200030346711	1046.774024012417	636.722877529346	270.423748335654	1140.486172240642	566.333994660812	332.046216230966	1148.169996800477	495.592717110719	340.319324804819	1120.221263504888	421.476818052855	333.655688984179	1030.396449267097	305.793813838510	288.136191802516	1086.939349940024	195.239307744490	355.015515042454	1001.646486822006	395.229952246357	574.766441627820	876.200608558501	368.374280611104	633.706559870564	853.341468719489	260.113779843390	584.990507660423	649.186953934746	219.930549605947	554.767965017257	807.598700505601	138.704851772514	595.671026029072	697.825847447355	149.044786896471	624.592872050715	856.055515498143	27.316571094636	613.356220510412	962.850359343642	38.842658167433	402.793850017326	1031.428688923433	36.620818694251	317.523197080755	1116.463964399974	97.019224716673	340.182288144063	1242.741477152683	42.599171068461	302.278638413102	930.580904676604	1095.332707428039	171.062636669664	935.512139450946	834.853594813458	191.818194033768	1108.180493259612	1101.628032684980	728.156639888914	1352.817495726524	1107.897801404128	677.788894530099	
92	35.696500000000	852.771494816739	1014.318764814231	453.884829270275	1033.668170600290	1435.788281121773	270.241871754807	1140.545036611454	1367.008934343253	429.118397295383	1061.795451550337	1443.274389310351	604.852489190861	1015.588329337663	1496.301415458245	426.006357750013	1076.823167467500	942.167991958752	567.671347613132	1064.658952734663	960.217143935704	296.086087832303	1113.293009909711	737.224754537516	552.730683055395	1031.451305121345	630.838192436979	618.918821061031	1112.360883330234	568.198859856051	547.205347717573	1097.707701487091	458.114616904831	568.731244825187	1123.935721003931	759.039940135446	327.086325328844	1043.161867741910	636.629741238546	268.816671124056	1135.864514695674	565.446098144845	330.752320365881	1142.762862784809	494.694363195312	339.191353463263	1114.235481240476	420.631853611701	332.651983143287	1023.433672272275	305.614453918711	287.378195212212	1078.989309763397	194.749408460984	354.629057239685	1012.883178333936	396.914101065133	573.512894312223	886.243763803695	373.819554182568	632.057652335332	861.020198370872	265.759464295610	584.406610991765	657.159372538194	233.736626722983	553.316394273772	811.162025397759	144.204779056299	595.552370048949	701.679567216472	160.437370733206	623.769452812482	853.255365833603	27.347192444997	614.411802559214	953.593414554541	38.894744092988	402.678649354361	1022.160149245186	36.559265014229	317.444691270991	1107.331495292416	96.856505377703	340.129855105053	1233.562738116940	42.125826292775	302.197854719901	938.782903202541	1093.809483582099	165.876899268779	957.095245508189	833.595054462624	186.057356668869	1095.479923216604	1099.025760230788	725.832936845073	1341.641073274788	1085.529978376221	681.270462032682	
93	35.708000000000	850.971018266771	1014.126545899859	451.520467775879	1033.712663675333	1435.962084936659	268.900761177917	1139.504916085507	1367.003215538352	428.393605871200	1059.571409570158	1442.839813616987	603.873639509580	1015.017553557315	1496.467133296853	424.610833580348	1075.118479999462	942.448662466106	565.772217877370	1063.481951117444	960.396861228233	294.138898873568	1117.423121763288	740.312400343950	550.168879773549	1039.919352023790	632.119176496007	617.544588438093	1122.207461019263	571.476374055311	545.162168249100	1110.169059468230	460.314517512872	567.248346442376	1121.599159129713	758.189648595617	325.190835495769	1039.538698596324	636.525677192044	267.316651112821	1131.239840447571	564.546187984208	329.561864430416	1137.375003260479	493.785917680206	338.195182989597	1108.269449996165	419.777555821425	331.755610848435	1016.500472200137	305.448863895948	286.669335087214	1071.040455835394	194.258711070690	354.285419952613	1024.339191770173	399.057042802017	572.242807866970	896.681710391159	379.112748986484	630.299773869346	869.653248672936	271.176466169660	583.654227061483	666.313833315891	245.652097382571	551.480630091435	816.412484627649	149.549182840152	595.219884763852	707.299412862139	170.734499610708	622.758648062825	853.131926654921	28.234985077272	615.662267634331	944.346734515018	38.946803804516	402.546144262892	1012.906122610415	36.509450903267	317.349731859478	1098.189779056935	96.720591947853	340.066302792415	1224.380503036606	41.756205582803	302.097519671428	947.494500698819	1092.304926596768	160.701693350669	979.455179632749	833.068500969212	180.371267968224	1083.000011221964	1096.645688045456	723.381657021478	1329.023630663767	1062.294752429614	685.016690251726	
